<?xml version="1.0" encoding="UTF-8"?>
<svg xmlns="http://www.w3.org/2000/svg" xmlns:xlink="http://www.w3.org/1999/xlink" width="2980pt" height="1490pt" viewBox="0 0 2980 1490" version="1.1">
<g id="surface1">
<path style=" stroke:none;fill-rule:evenodd;fill:rgb(96.078431%,93.72549%,86.666667%);fill-opacity:1;" d="M 2790.015625 469.714844 C 2732.933594 528.3125 2682.667969 576.992188 2638.53125 615.484375 C 2634.816406 617.34375 2631.027344 621.128906 2627.515625 626.5 C 2616.5 635.65625 2606.308594 642.886719 2597.152344 648.535156 C 2576.976562 663.335938 2552.1875 681.652344 2522.925781 703.6875 L 2371.238281 805.660156 C 2250.191406 886.289062 2163.84375 943.371094 2112.480469 976.421875 C 2077.5 1001.96875 2004.03125 1046.929688 1892.140625 1111.171875 C 1802.078125 1162.8125 1728.609375 1210.460938 1671.597656 1254.527344 L 1423.925781 1450.078125 C 1199.871094 1394.925781 983.046875 1323.382812 773.796875 1235.179688 C 478.199219 1106.628906 288.367188 1018.628906 203.878906 970.777344 C 192.863281 965.40625 182.605469 958.933594 173.515625 951.703125 C 136.609375 931.253906 100.871094 910.253906 66.167969 888.21875 L 11.015625 849.730469 L 203.878906 946.058594 C 238.582031 966.230469 345.101562 1016.773438 523.164062 1097.46875 C 541.683594 1106.628906 561.859375 1116.816406 583.890625 1127.835938 L 567.230469 1116.816406 C 642.558594 1144.5 775.722656 1192.144531 966.660156 1260.175781 C 1126.402344 1313.46875 1231.0625 1342.730469 1280.570312 1348.378906 C 1368.773438 1357.535156 1431.15625 1344.660156 1467.992188 1309.683594 C 1488.167969 1289.507812 1508.34375 1258.316406 1528.519531 1216.109375 C 1568.867188 1170.113281 1563.496094 1127.835938 1512.128906 1089.414062 C 1490.097656 1072.957031 1466.960938 1060.082031 1443.273438 1050.925781 C 1437.628906 1047.136719 1405.609375 1035.363281 1346.738281 1014.914062 C 1312.035156 1004.101562 1277.058594 989.367188 1242.078125 971.050781 L 1197.945312 946.058594 L 1288.902344 979.382812 C 1358.789062 1001.140625 1418.28125 1014.914062 1467.992188 1020.558594 C 1504.625 1025.929688 1568.039062 1040.734375 1657.898438 1064.351562 C 1735.082031 1084.523438 1787.550781 1093.957031 1814.957031 1092.097656 C 1827.898438 1093.957031 1841.601562 1090.996094 1856.40625 1083.769531 L 1859.089844 1083.769531 C 1875.480469 1076.46875 1892.96875 1066.277344 1911.285156 1053.332031 C 1926.085938 1044.175781 1939.789062 1035.085938 1952.664062 1025.929688 C 1976.628906 1009.542969 1997.628906 997.421875 2015.875 990.125 C 2019.660156 988.265625 2023.449219 986.40625 2026.960938 984.480469 C 2096.847656 958.933594 2149.042969 920.511719 2184.019531 868.871094 C 2200.683594 843.257812 2185.878906 817.4375 2139.882812 791.890625 L 2087.691406 758.839844 L 2145.53125 775.226562 C 2189.664062 786.246094 2223.542969 791.890625 2247.503906 791.890625 C 2252.875 791.890625 2261.207031 790.03125 2272.222656 786.246094 C 2281.382812 782.800781 2292.398438 777.15625 2305.273438 769.855469 C 2308.785156 767.996094 2311.746094 766.894531 2313.398438 766.894531 L 2332.746094 756.15625 C 2335.15625 754.503906 2338.117188 753.195312 2341.078125 751.816406 C 2365.039062 737.5625 2395.40625 719.59375 2431.96875 698.039062 C 2485.261719 663.335938 2560.3125 615.484375 2657.675781 554.960938 C 2707.386719 527.28125 2739.40625 498.980469 2754.210938 469.441406 C 2766.878906 438.25 2757.722656 412.703125 2726.53125 392.53125 L 2729.492188 392.53125 C 2799.101562 394.390625 2847.785156 388.742188 2875.257812 375.796875 C 2845.925781 408.917969 2817.417969 440.109375 2790.015625 469.714844 Z M 1553.304688 4.117188 C 1546.007812 16.992188 1538.5 30.765625 1531.203125 45.570312 C 1518.601562 72.972656 1511.027344 91.289062 1509.445312 100.378906 C 1509.445312 115.179688 1482.796875 167.648438 1429.574219 257.503906 C 1341.300781 340.0625 1259.570312 402.445312 1184.242188 444.652344 L 1236.710938 403.546875 C 1264.113281 385.230469 1299.09375 357.550781 1341.300781 320.988281 C 1376.277344 287.871094 1399.964844 264.734375 1412.910156 252.132812 C 1429.574219 231.683594 1450.503906 194.296875 1476.324219 139.144531 C 1485.484375 111.460938 1493.539062 90.460938 1501.113281 75.65625 C 1510.269531 59.269531 1522.046875 42.609375 1536.847656 26.152344 C 1542.21875 16.992188 1547.867188 9.488281 1553.304688 4.117188 Z M 1264.113281 419.933594 L 1228.378906 428.265625 L 1275.199219 414.5625 C 1277.058594 414.5625 1278.917969 413.460938 1280.570312 411.878906 C 1289.933594 408.089844 1301.777344 402.445312 1316.582031 395.214844 C 1329.25 386.058594 1346.738281 375.039062 1368.773438 362.097656 C 1376.003906 356.175781 1383.851562 350.253906 1392.183594 344.332031 C 1397.28125 341.164062 1402.375 337.929688 1407.261719 334.691406 C 1436.800781 314.515625 1475.292969 292.414062 1523.148438 268.523438 C 1572.652344 242.976562 1607.355469 228.171875 1627.808594 224.386719 C 1636.136719 222.800781 1643.917969 221.976562 1651.148438 221.699219 L 1674.558594 221.699219 C 1724.066406 217.914062 1776.535156 223.558594 1831.410156 238.085938 C 1856.683594 245.386719 1898.339844 255.09375 1956.726562 267.144531 L 1916.929688 263.152344 C 1801.253906 246.488281 1718.421875 239.1875 1668.914062 241.046875 C 1637.722656 241.046875 1605.703125 249.171875 1572.652344 265.835938 C 1563.496094 269.554688 1533.886719 286.769531 1484.449219 318.027344 C 1466.136719 321.746094 1443 333.589844 1415.59375 353.765625 C 1388.121094 372.355469 1348.597656 390.601562 1297.234375 408.917969 Z M 1264.113281 419.933594 "/>
<path style=" stroke:none;fill-rule:evenodd;fill:rgb(87.843137%,85.882353%,79.215686%);fill-opacity:1;" d="M 2310.714844 453.054688 C 2330.886719 478.875 2357.464844 508.964844 2390.585938 543.941406 C 2425.5625 580.78125 2445.738281 599.097656 2451.109375 599.097656 C 2454.828125 599.097656 2473.144531 602.539062 2506.191406 610.113281 C 2544.957031 610.113281 2586.132812 596.410156 2630.203125 568.660156 C 2747.738281 495.261719 2714.6875 453.054688 2530.980469 441.96875 C 2454.070312 434.738281 2399.742188 430.125 2368.484375 428.265625 C 2315.257812 424.480469 2295.910156 432.878906 2310.714844 453.054688 Z M 2341.078125 751.816406 C 2354.78125 743.484375 2368.484375 733.84375 2382.253906 723.035156 C 2406.148438 702.859375 2415.304688 688.125 2409.933594 678.96875 C 2408.074219 673.320312 2393.269531 664.164062 2365.796875 651.21875 C 2325.449219 621.957031 2285.167969 596.410156 2244.542969 574.308594 C 2165.703125 532.097656 2087.691406 511.925781 2010.503906 513.507812 C 1957.277344 513.507812 1845.390625 507.378906 1674.558594 494.4375 C 1534.988281 481.558594 1452.433594 479.632812 1426.613281 488.789062 C 1400.792969 497.949219 1402.648438 508.964844 1432.257812 521.910156 C 1452.433594 532.925781 1502.972656 555.785156 1583.671875 590.765625 C 1679.171875 636.691406 1827.898438 686.199219 2029.851562 739.492188 C 2101.460938 757.738281 2153.859375 767.996094 2186.980469 769.855469 C 2212.527344 771.714844 2237.246094 777.15625 2261.207031 786.246094 L 2272.222656 786.246094 C 2261.207031 790.03125 2252.875 791.890625 2247.503906 791.890625 C 2223.542969 791.890625 2189.664062 786.246094 2145.53125 775.226562 L 2087.691406 758.839844 L 2139.882812 791.890625 C 2185.878906 817.4375 2200.683594 843.257812 2184.019531 869.078125 C 2149.042969 920.511719 2096.847656 958.933594 2027.167969 984.753906 C 2023.449219 986.40625 2019.660156 988.265625 2016.152344 990.125 L 2137.199219 918.585938 L 2068.34375 918.585938 C 2016.976562 918.585938 1885.738281 896.550781 1674.558594 852.414062 C 1611.902344 839.8125 1494.640625 797.535156 1321.953125 725.71875 C 1173.222656 663.335938 1073.179688 632.972656 1021.8125 634.832031 C 957.5 636.691406 917.976562 645.089844 903.449219 659.824219 C 892.433594 667.125 892.433594 681.652344 903.449219 703.6875 C 912.609375 718.492188 958.328125 756.980469 1041.160156 819.363281 C 1105.472656 869.078125 1162.207031 910.253906 1211.714844 943.371094 C 1241.253906 963.546875 1285.113281 979.109375 1344.054688 990.398438 C 1364.160156 995.496094 1412.910156 1003.894531 1490.097656 1014.914062 C 1550.621094 1022.417969 1659 1047.964844 1814.957031 1092.097656 C 1787.277344 1093.957031 1735.082031 1084.523438 1657.898438 1064.351562 C 1567.832031 1040.734375 1504.625 1025.929688 1467.992188 1020.558594 C 1418.28125 1014.914062 1358.515625 1001.140625 1288.902344 979.109375 L 1197.945312 946.058594 L 1242.078125 970.777344 C 1277.058594 989.367188 1312.035156 1003.894531 1346.738281 1014.914062 C 1405.609375 1035.085938 1437.628906 1047.136719 1443.273438 1050.648438 C 1466.960938 1059.804688 1490.097656 1072.75 1512.128906 1089.414062 C 1563.496094 1127.835938 1568.867188 1170.113281 1528.519531 1216.109375 C 1508.34375 1258.316406 1488.167969 1289.507812 1467.992188 1309.683594 C 1431.15625 1344.386719 1368.773438 1357.261719 1280.570312 1348.171875 C 1231.0625 1342.457031 1126.402344 1313.195312 966.660156 1259.898438 C 775.722656 1192.144531 642.558594 1144.292969 567.230469 1116.816406 L 583.890625 1127.835938 C 561.859375 1116.816406 541.683594 1106.628906 523.164062 1097.46875 C 383.800781 1014.914062 304.753906 949.5 286.4375 901.921875 C 282.652344 890.902344 289.949219 876.101562 308.472656 857.785156 C 319.558594 846.769531 335.945312 831.964844 357.976562 813.71875 C 387.3125 804.558594 413.957031 795.402344 437.851562 786.246094 C 465.324219 773.367188 536.039062 737.5625 649.855469 678.691406 C 741.777344 627.328125 810.632812 596.136719 856.421875 585.050781 C 911.503906 570.589844 967.761719 550.414062 1024.496094 524.59375 C 1026.355469 522.667969 1029.042969 521.910156 1032.828125 521.910156 C 1055.414062 511.375 1091.21875 493.335938 1140.175781 468.0625 C 1190.4375 449.542969 1231.613281 433.359375 1264.113281 419.933594 L 1297.234375 408.917969 C 1348.597656 390.328125 1388.121094 372.078125 1415.59375 353.765625 C 1443.273438 333.589844 1466.136719 321.472656 1484.449219 318.027344 C 1533.886719 286.769531 1563.496094 269.347656 1572.652344 265.5625 C 1605.703125 249.171875 1637.722656 240.773438 1668.914062 240.773438 C 1718.695312 238.914062 1801.253906 246.488281 1916.929688 262.875 L 1957.003906 266.871094 L 1988.46875 271.207031 L 1978.761719 271.207031 C 2044.175781 279.539062 2126.730469 289.523438 2226.777344 301.296875 L 2233.734375 301.296875 C 2235.386719 303.226562 2238.347656 304.257812 2241.859375 304.257812 C 2289.710938 315.34375 2376.058594 332.558594 2500.824219 356.449219 C 2605.484375 376.625 2680.808594 388.742188 2726.53125 392.253906 C 2757.996094 412.429688 2767.15625 438.25 2754.210938 469.441406 C 2739.40625 498.980469 2707.386719 527.554688 2657.675781 554.960938 C 2560.589844 615.484375 2485.261719 663.335938 2431.96875 698.039062 C 2395.40625 719.59375 2365.316406 737.5625 2341.078125 751.816406 Z M 1859.089844 1083.769531 C 1868.25 1074.609375 1883.8125 1063.59375 1905.914062 1050.648438 L 1952.664062 1025.929688 C 1939.789062 1035.085938 1926.085938 1044.175781 1911.558594 1053.332031 C 1892.96875 1066.277344 1875.480469 1076.46875 1859.089844 1083.769531 Z M 1651.148438 221.699219 C 1643.917969 221.976562 1636.136719 222.800781 1627.808594 224.386719 C 1607.355469 228.171875 1572.652344 242.699219 1523.148438 268.523438 C 1475.292969 292.414062 1436.800781 314.515625 1407.261719 334.691406 C 1402.375 337.929688 1397.28125 341.164062 1392.183594 344.332031 C 1485.484375 276.027344 1567.558594 235.125 1638.824219 221.699219 Z M 526.121094 811.03125 C 656.257812 811.03125 757.40625 826.59375 828.949219 857.785156 L 986.007812 923.953125 C 958.328125 890.902344 923.625 858.886719 881.414062 827.695312 C 798.582031 765.3125 722.429688 735.703125 652.746094 739.492188 C 619.695312 741.351562 584.71875 753.195312 548.15625 775.226562 C 511.320312 799.1875 504.019531 811.03125 526.121094 811.03125 Z M 526.121094 811.03125 "/>
<path style=" stroke:none;fill-rule:evenodd;fill:rgb(80.392157%,78.823529%,72.941176%);fill-opacity:1;" d="M 2341.078125 751.816406 C 2338.117188 753.195312 2335.15625 754.503906 2332.746094 756.15625 L 2313.398438 766.894531 C 2311.746094 766.894531 2308.785156 767.996094 2305.273438 769.855469 C 2292.398438 777.15625 2281.382812 782.800781 2272.222656 786.246094 L 2261.207031 786.246094 C 2237.246094 777.15625 2212.527344 771.714844 2186.703125 769.855469 C 2153.585938 767.996094 2101.460938 757.738281 2029.851562 739.492188 C 1827.898438 686.199219 1679.171875 636.691406 1583.671875 590.765625 C 1502.695312 555.785156 1452.433594 532.925781 1431.984375 521.910156 C 1402.648438 509.238281 1400.792969 497.949219 1426.613281 488.789062 C 1452.433594 479.632812 1534.988281 481.558594 1674.558594 494.4375 C 1845.113281 507.378906 1957.277344 513.507812 2010.503906 513.507812 C 2087.691406 511.925781 2165.703125 532.097656 2244.542969 574.308594 C 2284.890625 596.410156 2325.449219 621.957031 2365.796875 651.21875 C 2393.269531 664.164062 2408.074219 673.320312 2409.933594 678.96875 C 2415.304688 688.125 2406.148438 702.859375 2382.253906 723.035156 C 2368.484375 733.84375 2354.78125 743.484375 2341.078125 751.816406 Z M 2310.714844 453.054688 C 2295.910156 432.878906 2315.257812 424.480469 2368.484375 428.265625 C 2399.742188 430.125 2454.070312 434.738281 2530.980469 441.96875 C 2714.6875 453.054688 2747.738281 495.261719 2630.203125 568.660156 C 2586.132812 596.410156 2544.957031 610.113281 2506.191406 610.113281 C 2473.144531 602.539062 2454.828125 599.097656 2451.109375 599.097656 C 2445.738281 599.097656 2425.5625 580.78125 2390.585938 543.941406 C 2357.464844 508.964844 2330.886719 478.875 2310.714844 453.054688 Z M 1980.140625 962.71875 C 1993.015625 964.304688 2000.589844 969.949219 2002.171875 979.109375 C 1983.855469 982.621094 1950.808594 994.738281 1903.226562 1014.914062 C 1860.949219 1031.574219 1826.042969 1039.632812 1798.566406 1039.632812 C 1776.535156 1041.492188 1759.046875 1038.804688 1746.101562 1031.574219 C 1744.242188 1029.714844 1732.398438 1015.671875 1710.363281 990.125 C 1659 931.253906 1606.53125 883.605469 1553.304688 846.769531 C 1602.742188 850.554688 1662.511719 859.710938 1732.398438 874.515625 C 1770.886719 885.535156 1830.585938 899.234375 1911.285156 915.625 Z M 526.121094 811.03125 C 504.019531 811.03125 511.320312 799.1875 548.15625 775.226562 C 584.71875 753.195312 619.695312 741.351562 652.746094 739.492188 C 722.429688 735.980469 798.582031 765.3125 881.414062 827.695312 C 923.625 858.886719 958.328125 890.902344 986.007812 923.953125 L 828.949219 858.058594 C 757.40625 826.59375 656.257812 811.03125 526.121094 811.03125 Z M 526.121094 811.03125 "/>
<path style=" stroke:none;fill-rule:evenodd;fill:rgb(0%,0%,0%);fill-opacity:0.298039;" d="M 2790.015625 469.714844 C 2896.464844 486.105469 2959.675781 491.476562 2979.847656 486.105469 C 2943.285156 519.15625 2908.308594 542.015625 2875.257812 554.960938 C 2860.730469 562.1875 2813.90625 597.167969 2734.863281 659.621094 C 2646.65625 731.160156 2577.800781 783.558594 2528.296875 816.679688 C 2330.0625 945.230469 2125.355469 1064.351562 1914.246094 1174.65625 C 1787.550781 1242.6875 1670.015625 1314.226562 1561.636719 1389.554688 L 1434.941406 1485.882812 C 1348.597656 1482.09375 1237.535156 1458.410156 1101.683594 1414.273438 C 960.1875 1373.992188 850.980469 1340.875 773.796875 1315.050781 C 639.871094 1274.703125 528.808594 1234.355469 440.535156 1193.730469 L 0 1006.582031 L 129.378906 965.40625 C 136.882812 963.546875 151.414062 958.933594 173.515625 951.703125 C 182.605469 958.933594 192.863281 965.40625 203.878906 970.777344 C 288.367188 1018.628906 478.199219 1106.628906 773.796875 1235.179688 C 983.320312 1323.382812 1199.871094 1394.925781 1423.925781 1450.078125 L 1671.875 1254.527344 C 1728.609375 1210.460938 1802.078125 1162.8125 1892.140625 1111.171875 C 2004.03125 1046.929688 2077.5 1001.96875 2112.480469 976.421875 C 2163.84375 943.371094 2250.191406 886.289062 2371.445312 805.660156 L 2522.925781 703.6875 C 2552.1875 681.652344 2576.976562 663.335938 2597.152344 648.535156 C 2606.515625 642.886719 2616.5 635.65625 2627.515625 626.5 C 2631.027344 621.128906 2634.816406 617.34375 2638.53125 615.484375 C 2682.667969 576.992188 2732.933594 528.3125 2790.015625 469.714844 Z M 2790.015625 469.714844 "/>
<path style=" stroke:none;fill-rule:evenodd;fill:rgb(72.156863%,70.980392%,65.490196%);fill-opacity:1;" d="M 357.976562 813.992188 C 335.945312 832.238281 319.558594 846.769531 308.472656 857.785156 C 289.949219 876.375 282.652344 890.902344 286.4375 901.921875 C 304.753906 949.777344 383.800781 1014.914062 523.164062 1097.46875 C 345.101562 1016.773438 238.582031 966.230469 203.878906 946.058594 L 11.015625 849.730469 L 49.507812 852.414062 C 77.1875 852.414062 96.257812 850.554688 107.34375 846.769531 L 228.597656 835.75 C 231.285156 835.75 234.246094 835.476562 236.722656 834.648438 L 245.054688 834.648438 C 248.015625 834.167969 250.703125 833.617188 253.386719 833.066406 L 275.421875 830.378906 L 327.613281 816.679688 C 338.628906 816.679688 348.820312 814.75 357.976562 811.308594 Z M 1553.304688 4.117188 L 1688.332031 117.109375 C 1789.132812 192.367188 1870.933594 235.402344 1933.316406 246.488281 C 2082.046875 274.167969 2178.648438 291.382812 2222.441406 298.886719 C 2223.816406 300.265625 2225.402344 301.019531 2226.777344 301.570312 C 2126.730469 289.730469 2044.175781 279.8125 1978.761719 271.207031 L 1988.46875 271.207031 L 1956.726562 267.144531 C 1898.339844 255.09375 1856.683594 245.386719 1831.410156 238.085938 C 1776.535156 223.558594 1724.066406 217.914062 1674.558594 221.699219 L 1638.824219 221.699219 C 1567.558594 235.125 1485.484375 276.027344 1392.183594 344.332031 C 1383.851562 350.253906 1376.003906 356.175781 1368.773438 362.097656 C 1346.738281 375.039062 1329.25 386.058594 1316.582031 395.214844 C 1301.777344 402.445312 1289.933594 408.089844 1280.570312 411.878906 C 1278.917969 413.460938 1277.058594 414.5625 1275.199219 414.5625 L 1228.378906 428.265625 L 1264.113281 419.933594 C 1231.613281 433.636719 1190.4375 449.816406 1140.175781 468.0625 C 1136.664062 469.441406 1133.152344 470.75 1129.089844 472.402344 L 1148.503906 464.070312 L 1181.554688 444.652344 L 1184.242188 444.652344 C 1259.570312 402.445312 1341.300781 340.0625 1429.296875 257.503906 C 1482.523438 167.648438 1509.167969 115.179688 1509.167969 100.378906 C 1511.027344 91.289062 1518.601562 72.972656 1531.203125 45.570312 C 1538.5 30.765625 1546.007812 16.992188 1553.304688 4.117188 Z M 1553.304688 4.117188 "/>
<path style=" stroke:none;fill-rule:evenodd;fill:rgb(85.098039%,83.529412%,77.254902%);fill-opacity:1;" d="M 1952.664062 1025.929688 L 1905.914062 1050.648438 C 1883.8125 1063.59375 1868.25 1074.609375 1859.089844 1083.769531 L 1856.132812 1083.769531 C 1841.601562 1091.273438 1827.625 1093.957031 1814.957031 1092.097656 C 1659 1047.964844 1550.621094 1022.140625 1490.097656 1014.914062 C 1412.910156 1003.894531 1364.160156 995.496094 1344.054688 990.125 C 1285.113281 979.109375 1241.253906 963.546875 1211.714844 943.371094 C 1162.207031 910.253906 1105.195312 868.871094 1041.160156 819.363281 C 958.328125 756.980469 912.609375 718.214844 903.449219 703.6875 C 892.433594 681.652344 892.433594 666.847656 903.449219 659.621094 C 917.976562 644.816406 957.5 636.691406 1021.8125 634.832031 C 1073.179688 632.972656 1173.222656 663.335938 1321.953125 725.515625 C 1494.640625 797.328125 1611.902344 839.539062 1674.558594 852.414062 C 1885.738281 896.550781 2016.976562 918.308594 2068.34375 918.308594 L 2137.199219 918.308594 L 2015.875 990.125 C 1997.628906 997.421875 1976.628906 1009.542969 1952.664062 1025.929688 Z M 1980.140625 962.71875 L 1911.285156 915.625 C 1830.585938 899.234375 1770.886719 885.535156 1732.398438 874.515625 C 1662.511719 859.710938 1602.742188 850.554688 1553.304688 846.769531 C 1606.53125 883.605469 1659 931.253906 1710.363281 990.125 C 1732.398438 1015.671875 1744.242188 1029.714844 1746.101562 1031.574219 C 1759.046875 1038.804688 1776.535156 1041.492188 1798.566406 1039.632812 C 1826.042969 1039.632812 1860.949219 1031.574219 1903.226562 1014.914062 C 1950.808594 994.738281 1983.855469 982.621094 2002.171875 979.109375 C 2000.589844 969.949219 1993.015625 964.304688 1980.140625 962.71875 Z M 1980.140625 962.71875 "/>
</g>
</svg>
